<?xml version="1.0" encoding="UTF-8" standalone="no"?>
<!-- Created with Inkscape (http://www.inkscape.org/) -->

<svg
   width="21"
   height="27"
   viewBox="0 0 5.5562499 7.1437502"
   version="1.1"
   id="svg1415"
   inkscape:version="1.1.1 (3bf5ae0d25, 2021-09-20)"
   sodipodi:docname="flame.svg"
   xmlns:inkscape="http://www.inkscape.org/namespaces/inkscape"
   xmlns:sodipodi="http://sodipodi.sourceforge.net/DTD/sodipodi-0.dtd"
   xmlns="http://www.w3.org/2000/svg"
   xmlns:svg="http://www.w3.org/2000/svg">
  <sodipodi:namedview
     id="namedview1417"
     pagecolor="#ffffff"
     bordercolor="#666666"
     borderopacity="1.0"
     inkscape:pageshadow="2"
     inkscape:pageopacity="0.0"
     inkscape:pagecheckerboard="0"
     inkscape:document-units="px"
     showgrid="false"
     units="px"
     inkscape:zoom="17.037037"
     inkscape:cx="10.506522"
     inkscape:cy="13.5"
     inkscape:window-width="1366"
     inkscape:window-height="713"
     inkscape:window-x="0"
     inkscape:window-y="0"
     inkscape:window-maximized="1"
     inkscape:current-layer="layer1" />
  <defs
     id="defs1412" />
  <g
     inkscape:label="Camada 1"
     inkscape:groupmode="layer"
     id="layer1">
    <g
       id="g1058"
       transform="matrix(0.01960088,0,0,0.01960088,-20.798352,-23.80242)">
      <path
         fill="#f17f21"
         d="m 1342.206,1343.837 c 0,98.39 -139.375,230.896 -139.375,230.896 0,0 -139.382,-132.506 -139.382,-230.896 0,-98.385 62.404,-125.4 139.382,-125.4 76.972,0 139.375,27.016 139.375,125.4 z"
         id="path8" />
      <path
         fill="#edb420"
         d="m 1299.026,1324.385 c 0,67.904 -96.199,159.357 -96.199,159.357 0,0 -96.196,-91.453 -96.196,-159.357 0,-67.911 43.07,-86.556 96.196,-86.556 53.13,0 96.199,18.645 96.199,86.556 z"
         id="path10" />
      <path
         fill="#f7cb6d"
         d="m 1258.553,1291.87 c 0,39.329 -55.722,92.306 -55.722,92.306 0,0 -55.719,-52.977 -55.719,-92.306 0,-39.338 24.944,-50.136 55.719,-50.136 30.772,0 55.722,10.798 55.722,50.136 z"
         id="path12" />
    </g>
  </g>
</svg>
